# xmcd
#
# Track frame offsets:
#	150
#	9538
#	21218
#	30165
#	42593
#	53549
#	65903
#	78305
#	88320
#	100887
#	110180
#	121586
#	131009
#	140784
#
# Disc length: 2049 seconds
#
# Revision: 0
# Processed by: cddbd v1.5.2PL0 Copyright (c) Steve Scherf et al.
# Submitted via: dBpowerAMP V4.0
#
DISCID=bf07ff0e
DTITLE=George Jones - King Of The Broken Hearts
DYEAR=2005
DGENRE=Country
TTITLE0=The Race Is On
TTITLE1=We Must Have Been Out Of Our Minds
TTITLE2=Love Bug
TTITLE3=Take Me
TTITLE4=Tender Years
TTITLE5=Okie From Muskogee
TTITLE6=Blue Side Of Lonesome
TTITLE7=Heartaches And Hangovers
TTITLE8=Don't Be Angry
TTITLE9=Living On Easy Street
TTITLE10=Talk Back Trembling Lips
TTITLE11=Old Brush Arbors
TTITLE12=Honky Tonk Downstairs
TTITLE13=Hello Darlin'
EXTD=
EXTT0=
EXTT1=
EXTT2=
EXTT3=
EXTT4=
EXTT5=
EXTT6=
EXTT7=
EXTT8=
EXTT9=
EXTT10=
EXTT11=
EXTT12=
EXTT13=
PLAYORDER=
